<svg width="18" height="18" viewBox="0 0 18 18" fill="none" xmlns="http://www.w3.org/2000/svg">
<path d="M15.0941 2.92407H3.49657C2.69924 2.92407 2.05412 3.57643 2.05412 4.37376L2.04688 13.0719C2.04688 13.8692 2.69924 14.5216 3.49657 14.5216H15.0941C15.8914 14.5216 16.5438 13.8692 16.5438 13.0719V4.37376C16.5438 3.57643 15.8914 2.92407 15.0941 2.92407ZM14.8042 6.00467L9.6795 9.20849C9.44755 9.35346 9.14312 9.35346 8.91117 9.20849L3.78651 6.00467C3.71382 5.96387 3.65018 5.90874 3.59941 5.84263C3.54865 5.77652 3.51183 5.7008 3.49119 5.62004C3.47054 5.53929 3.46649 5.45519 3.47928 5.37282C3.49208 5.29046 3.52146 5.21155 3.56563 5.14087C3.60981 5.07019 3.66787 5.0092 3.73629 4.96161C3.80472 4.91402 3.88209 4.8808 3.96373 4.86398C4.04536 4.84715 4.12956 4.84706 4.21123 4.86372C4.2929 4.88038 4.37034 4.91344 4.43887 4.96089L9.29533 7.99799L14.1518 4.96089C14.2203 4.91344 14.2978 4.88038 14.3794 4.86372C14.4611 4.84706 14.5453 4.84715 14.6269 4.86398C14.7086 4.8808 14.786 4.91402 14.8544 4.96161C14.9228 5.0092 14.9809 5.07019 15.025 5.14087C15.0692 5.21155 15.0986 5.29046 15.1114 5.37282C15.1242 5.45519 15.1201 5.53929 15.0995 5.62004C15.0788 5.7008 15.042 5.77652 14.9913 5.84263C14.9405 5.90874 14.8768 5.96387 14.8042 6.00467Z" fill="#3D3D3D"/>
</svg>
