<svg width="20" height="20" viewBox="0 0 20 20" fill="none" xmlns="http://www.w3.org/2000/svg">
<path d="M15 1.25C16.375 1.25 17.5 2.36875 17.5 3.75V15C17.5 16.375 16.3812 17.5 15 17.5H11.875C11.7092 17.5 11.5503 17.4342 11.4331 17.3169C11.3158 17.1997 11.25 17.0408 11.25 16.875C11.25 16.7092 11.3158 16.5503 11.4331 16.4331C11.5503 16.3158 11.7092 16.25 11.875 16.25H15C15.3315 16.25 15.6495 16.1183 15.8839 15.8839C16.1183 15.6495 16.25 15.3315 16.25 15V3.75C16.25 3.41848 16.1183 3.10054 15.8839 2.86612C15.6495 2.6317 15.3315 2.5 15 2.5H11.875C11.7092 2.5 11.5503 2.43415 11.4331 2.31694C11.3158 2.19973 11.25 2.04076 11.25 1.875C11.25 1.70924 11.3158 1.55027 11.4331 1.43306C11.5503 1.31585 11.7092 1.25 11.875 1.25H15Z" fill="#FF3B3B"/>
<path d="M5.1869 5.18753C5.30477 5.07368 5.46265 5.01068 5.62652 5.01211C5.7904 5.01353 5.94715 5.07926 6.06303 5.19514C6.17891 5.31102 6.24464 5.46778 6.24607 5.63165C6.24749 5.79553 6.1845 5.9534 6.07065 6.07128L3.38315 8.75878H11.8706C12.0364 8.75878 12.1954 8.82463 12.3126 8.94184C12.4298 9.05905 12.4956 9.21802 12.4956 9.38378C12.4956 9.54954 12.4298 9.70851 12.3126 9.82572C12.1954 9.94293 12.0364 10.0088 11.8706 10.0088H3.38315L6.07065 12.6963C6.1845 12.8142 6.24749 12.972 6.24607 13.1359C6.24464 13.2998 6.17891 13.4565 6.06303 13.5724C5.94715 13.6883 5.7904 13.754 5.62652 13.7555C5.46265 13.7569 5.30477 13.6939 5.1869 13.58L1.4369 9.83003C1.31973 9.71282 1.25391 9.55388 1.25391 9.38815C1.25391 9.22243 1.31973 9.06348 1.4369 8.94628L5.1869 5.19628V5.18753Z" fill="#FF3B3B"/>
</svg>
