<svg width="20" height="20" viewBox="0 0 20 20" fill="none" xmlns="http://www.w3.org/2000/svg">
<path d="M13.5 17.5V15.375C13.5 14.712 13.2366 14.0761 12.7678 13.6072C12.2989 13.1384 11.663 12.875 11 12.875H9C8.33696 12.875 7.70107 13.1384 7.23223 13.6072C6.76339 14.0761 6.5 14.712 6.5 15.375V17.5M18.125 13.125V11.625C18.125 10.962 17.8616 10.3261 17.3928 9.85723C16.9239 9.38839 16.288 9.125 15.625 9.125H13.75M1.875 13.125V11.625C1.875 10.962 2.13839 10.3261 2.60723 9.85723C3.07607 9.38839 3.71196 9.125 4.375 9.125H6.25M12.0062 8.88125C12.0062 9.14471 11.9544 9.4056 11.8535 9.64901C11.7527 9.89242 11.6049 10.1136 11.4186 10.2999C11.2323 10.4862 11.0112 10.634 10.7678 10.7348C10.5243 10.8356 10.2635 10.8875 10 10.8875C9.73654 10.8875 9.47565 10.8356 9.23224 10.7348C8.98883 10.634 8.76766 10.4862 8.58137 10.2999C8.39507 10.1136 8.24729 9.89242 8.14647 9.64901C8.04564 9.4056 7.99375 9.14471 7.99375 8.88125C7.99375 8.34916 8.20512 7.83886 8.58137 7.46262C8.95761 7.08637 9.46791 6.875 10 6.875C10.5321 6.875 11.0424 7.08637 11.4186 7.46262C11.7949 7.83886 12.0062 8.34916 12.0062 8.88125ZM16.7562 5.13125C16.7562 5.39471 16.7044 5.6556 16.6035 5.89901C16.5027 6.14242 16.3549 6.36359 16.1686 6.54988C15.9823 6.73618 15.7612 6.88396 15.5178 6.98478C15.2743 7.08561 15.0135 7.1375 14.75 7.1375C14.4865 7.1375 14.2257 7.08561 13.9822 6.98478C13.7388 6.88396 13.5177 6.73618 13.3314 6.54988C13.1451 6.36359 12.9973 6.14242 12.8965 5.89901C12.7956 5.6556 12.7437 5.39471 12.7437 5.13125C12.7437 4.59916 12.9551 4.08886 13.3314 3.71262C13.7076 3.33637 14.2179 3.125 14.75 3.125C15.2821 3.125 15.7924 3.33637 16.1686 3.71262C16.5449 4.08886 16.7562 4.59916 16.7562 5.13125ZM7.38125 5.13125C7.38125 5.39471 7.32936 5.6556 7.22853 5.89901C7.12771 6.14242 6.97993 6.36359 6.79363 6.54988C6.60734 6.73618 6.38617 6.88396 6.14276 6.98478C5.89935 7.08561 5.63846 7.1375 5.375 7.1375C5.11154 7.1375 4.85065 7.08561 4.60724 6.98478C4.36383 6.88396 4.14266 6.73618 3.95637 6.54988C3.77007 6.36359 3.62229 6.14242 3.52147 5.89901C3.42064 5.6556 3.36875 5.39471 3.36875 5.13125C3.36875 4.59916 3.58012 4.08886 3.95637 3.71262C4.33261 3.33637 4.84291 3.125 5.375 3.125C5.90709 3.125 6.41739 3.33637 6.79363 3.71262C7.16988 4.08886 7.38125 4.59916 7.38125 5.13125Z" stroke="#2F2F2F" stroke-width="1.25"/>
</svg>
