<svg width="25" height="24" viewBox="0 0 25 24" fill="none" xmlns="http://www.w3.org/2000/svg">
<path d="M11.5165 0.0328398C10.6961 0.164089 9.98365 0.40784 9.43521 0.735965C8.58677 1.24221 7.81334 2.01096 7.30709 2.84534C7.04459 3.27659 6.81021 3.87659 6.67896 4.42971C6.54302 5.01565 6.51021 6.18753 6.61334 6.77815C6.91334 8.50315 7.94927 9.96565 9.51021 10.861C11.0477 11.7422 13.0961 11.8172 14.779 11.0578C15.3415 10.8047 15.8711 10.4157 16.4196 9.8719C17.6477 8.64378 18.1868 7.2469 18.1118 5.5219C18.0415 3.98909 17.5211 2.7844 16.4524 1.70159C15.5993 0.834402 14.5352 0.276589 13.3586 0.0703392C12.9883 0.00471497 11.8258 -0.0187225 11.5165 0.0328398ZM13.5227 1.58909C14.2258 1.79534 14.8633 2.1844 15.4211 2.75159C15.979 3.31878 16.2883 3.83909 16.518 4.57971C16.6352 4.9594 16.6446 5.05315 16.6446 5.78909C16.6399 6.51565 16.6305 6.62346 16.518 6.99846C16.3024 7.70628 15.9883 8.23128 15.4352 8.80315C14.6102 9.66096 13.5133 10.125 12.3415 10.125C11.179 10.1203 10.2227 9.74065 9.39302 8.95315C8.74615 8.33909 8.3524 7.71565 8.13209 6.95159C8.03834 6.63284 8.02427 6.48284 8.02896 5.76565C8.02896 5.00628 8.03834 4.91253 8.16021 4.52346C8.47896 3.48753 9.2149 2.57346 10.204 1.98753C10.5696 1.7719 10.9258 1.63596 11.4274 1.52346C11.8821 1.42034 13.0727 1.45784 13.5227 1.58909Z" fill="black"/>
<path d="M7.10937 11.6062C6.02656 11.7656 5.20625 12.1687 4.51719 12.8766C3.20469 14.2266 2.46875 16.6219 2.46875 19.5516C2.46875 20.7891 2.55781 21.2297 2.95156 22.0078C3.09687 22.2937 3.24687 22.4859 3.57031 22.8094C4.02969 23.2734 4.42812 23.5359 4.98594 23.7328C5.75937 24.0141 5.50156 24.0047 12.6687 23.9906L19.2266 23.9766L19.625 23.8547C20.1312 23.6953 20.3984 23.5781 20.7359 23.3625C21.5187 22.8656 22.0953 22.0781 22.3437 21.1875C22.4937 20.6297 22.5359 19.9641 22.4844 18.9375C22.25 14.3437 20.5062 11.7562 17.5391 11.5922C16.9016 11.5594 16.8922 11.5594 15.8 12.2625C14.9562 12.8016 14.3703 13.0687 13.5922 13.2703C13.0062 13.425 11.9562 13.425 11.375 13.275C10.5453 13.0594 9.9875 12.8016 9.14375 12.2531C8.83437 12.0516 8.45469 11.8172 8.29062 11.7328C8.01875 11.5922 7.95781 11.5781 7.61094 11.5828C7.4 11.5875 7.175 11.5969 7.10937 11.6062ZM8.35156 13.4859C9.19062 14.025 9.81406 14.3297 10.5406 14.55C11.9562 14.9766 13.2969 14.9484 14.7078 14.4562C15.35 14.2359 15.8094 13.9969 16.6391 13.4625L17.3328 13.0219L17.6187 13.05C19.3484 13.2469 20.3984 14.6625 20.8672 17.4141C21.0078 18.2297 21.0922 19.7531 21.0312 20.3016C20.9047 21.4359 20.1969 22.2234 19.0719 22.4859C18.7344 22.5656 18.3266 22.5703 12.4531 22.5703C5.49687 22.5703 5.9375 22.5891 5.23906 22.2562C4.85469 22.0734 4.37187 21.6 4.19375 21.2344C3.96875 20.7656 3.92187 20.475 3.92187 19.5656C3.92656 17.0953 4.50312 15.0609 5.525 13.9453C5.91875 13.5141 6.41094 13.2375 7.03906 13.1016C7.56875 12.9844 7.58281 12.9891 8.35156 13.4859Z" fill="black"/>
</svg>
