<svg width="26" height="24" viewBox="0 0 26 24" fill="none" xmlns="http://www.w3.org/2000/svg">
<rect x="2" y="3" width="22" height="20" rx="3" stroke="#1A1A1A" stroke-width="2"/>
<path d="M12.7627 6.15918C12.8375 5.92885 13.1625 5.92885 13.2373 6.15918L14.3076 9.4502C14.5419 10.1712 15.2135 10.6602 15.9717 10.6602H19.4326C19.6748 10.6602 19.7759 10.9699 19.5801 11.1123L16.7793 13.1465C16.1661 13.5921 15.9093 14.3826 16.1436 15.1035L17.2139 18.3945C17.2887 18.6247 17.025 18.8166 16.8291 18.6748L14.0283 16.6396C13.4151 16.1944 12.5849 16.1944 11.9717 16.6396L9.1709 18.6748C8.97501 18.8166 8.71134 18.6247 8.78613 18.3945L9.85645 15.1035C10.0907 14.3826 9.8339 13.5921 9.2207 13.1465L6.41992 11.1123C6.22407 10.9699 6.32522 10.6602 6.56738 10.6602H10.0283C10.7865 10.6602 11.4581 10.1712 11.6924 9.4502L12.7627 6.15918Z" stroke="#1A1A1A" stroke-width="1.5"/>
<path d="M7 1L7 5" stroke="#1A1A1A" stroke-width="2" stroke-linecap="round"/>
<path d="M19 1L19 5" stroke="#1A1A1A" stroke-width="2" stroke-linecap="round"/>
</svg>
