<svg width="25" height="24" viewBox="0 0 25 24" fill="none" xmlns="http://www.w3.org/2000/svg">
<path d="M19.8 16.9C20.2 16.2 20.5 15.4 20.5 14.5C20.5 12 18.5 10 16 10C13.5 10 11.5 12 11.5 14.5C11.5 17 13.5 19 16 19C16.9 19 17.7 18.7 18.4 18.3L21.6 21.5L23 20.1L19.8 16.9ZM16 17C14.6 17 13.5 15.9 13.5 14.5C13.5 13.1 14.6 12 16 12C17.4 12 18.5 13.1 18.5 14.5C18.5 15.9 17.4 17 16 17ZM12.5 20V22C6.98 22 2.5 17.52 2.5 12C2.5 6.48 6.98 2 12.5 2C17.34 2 21.37 5.44 22.3 10H20.23C19.9181 8.79184 19.3279 7.67338 18.5066 6.73401C17.6853 5.79465 16.6557 5.06042 15.5 4.59V5C15.5 6.1 14.6 7 13.5 7H11.5V9C11.5 9.55 11.05 10 10.5 10H8.5V12H10.5V15H9.5L4.71 10.21C4.58 10.79 4.5 11.38 4.5 12C4.5 16.41 8.09 20 12.5 20Z" fill="#0B0101"/>
</svg>
