<svg width="20" height="20" viewBox="0 0 20 20" fill="none" xmlns="http://www.w3.org/2000/svg">
<path d="M17.4085 8.58623C17.5136 7.87765 17.4782 7.1553 17.3043 6.46039C17.0664 5.51089 16.5745 4.64407 15.8814 3.95289C15.1903 3.25961 14.3234 2.76757 13.3739 2.52956C12.6789 2.35582 11.9566 2.32057 11.248 2.42581M14.246 8.25164C14.3042 7.86491 14.2708 7.46989 14.1483 7.09846C14.0258 6.72703 13.8178 6.38957 13.541 6.11331C13.2647 5.83648 12.9272 5.62844 12.5558 5.50598C12.1844 5.38352 11.7894 5.35007 11.4026 5.40831" stroke="#6D6D6D" stroke-width="1.66667" stroke-linecap="round" stroke-linejoin="round"/>
<path d="M5.98941 3.66418C6.13805 3.66426 6.28397 3.7041 6.41203 3.77956C6.5401 3.85502 6.64565 3.96336 6.71774 4.09335L7.73732 5.92918C7.80311 6.04766 7.83901 6.18039 7.84192 6.31587C7.84482 6.45135 7.81464 6.5855 7.75399 6.70668L6.77191 8.67043C6.77191 8.67043 7.05649 10.1338 8.24732 11.3246C9.43857 12.5154 10.8969 12.7954 10.8969 12.7954L12.8602 11.8134C12.9815 11.7527 13.1158 11.7225 13.2513 11.7255C13.3869 11.7285 13.5197 11.7645 13.6382 11.8304L15.4798 12.8542C15.6096 12.9264 15.7177 13.0321 15.7929 13.1601C15.8681 13.2882 15.9078 13.434 15.9077 13.5825V15.6967C15.9077 16.7729 14.9077 17.5509 13.8877 17.2063C11.7927 16.4996 8.54107 15.1534 6.47941 13.0925C4.41857 11.0313 3.07274 7.77918 2.36566 5.68418C2.02149 4.66418 2.79899 3.66418 3.87566 3.66418H5.98941Z" fill="#6D6D6D" stroke="#6D6D6D" stroke-width="1.66667" stroke-linejoin="round"/>
</svg>
