<svg width="18" height="18" viewBox="0 0 18 18" fill="none" xmlns="http://www.w3.org/2000/svg">
<path d="M9.06487 1.44971C13.1486 1.44971 16.3133 4.44115 16.3133 8.48071C16.3133 12.5203 13.1479 15.5117 9.06487 15.5117C8.35613 15.5126 7.65043 15.419 6.96644 15.2334C6.838 15.1981 6.70131 15.208 6.57937 15.2616L5.14055 15.8966C5.05366 15.935 4.95867 15.9515 4.86393 15.9446C4.76919 15.9376 4.67759 15.9076 4.5972 15.8569C4.51681 15.8063 4.45009 15.7368 4.4029 15.6543C4.3557 15.5719 4.32948 15.4791 4.32655 15.3841L4.28741 14.0939C4.28458 14.0154 4.26584 13.9383 4.23232 13.8673C4.1988 13.7963 4.15121 13.7328 4.09242 13.6808C2.6826 12.4195 1.81641 10.5944 1.81641 8.48071C1.81641 4.44115 4.98108 1.44971 9.06487 1.44971ZM4.71217 10.5371C4.50776 10.8611 4.90642 11.2264 5.21159 10.9945L7.49847 9.2592C7.57395 9.20222 7.66594 9.1714 7.76051 9.1714C7.85507 9.1714 7.94706 9.20222 8.02254 9.2592L9.71578 10.5277C9.83596 10.6179 9.97354 10.6823 10.1198 10.7167C10.2661 10.7511 10.418 10.7548 10.5658 10.7275C10.7136 10.7003 10.8542 10.6427 10.9786 10.5584C11.103 10.4741 11.2086 10.3649 11.2887 10.2377L13.4176 6.85996C13.622 6.53523 13.2233 6.1699 12.9181 6.40113L10.6313 8.13786C10.5558 8.19484 10.4638 8.22566 10.3692 8.22566C10.2747 8.22566 10.1827 8.19484 10.1072 8.13786L8.41323 6.86938C8.29307 6.77925 8.15554 6.71499 8.00931 6.68066C7.86308 6.64632 7.71133 6.64266 7.56361 6.6699C7.4159 6.69715 7.27543 6.7547 7.15107 6.83893C7.0267 6.92317 6.92114 7.03225 6.84104 7.15932L4.71217 10.5371Z" fill="black"/>
</svg>
