<svg width="18" height="18" viewBox="0 0 18 18" fill="none" xmlns="http://www.w3.org/2000/svg">
<path d="M9.27191 1.44971C13.2752 1.44971 16.5204 4.69484 16.5204 8.69817C16.5204 12.7015 13.2752 15.9466 9.27191 15.9466C7.99093 15.9488 6.73247 15.6098 5.62593 14.9645L2.02635 15.9466L3.00634 12.3456C2.36047 11.2387 2.0212 9.97971 2.02345 8.69817C2.02345 4.69484 5.26858 1.44971 9.27191 1.44971ZM6.80163 5.29139L6.65666 5.29719C6.56293 5.30365 6.47136 5.32827 6.38702 5.36967C6.30843 5.41426 6.23666 5.46992 6.17392 5.53494C6.08694 5.61685 6.03765 5.68788 5.98473 5.75674C5.71663 6.10532 5.57227 6.53328 5.57447 6.97303C5.57592 7.32821 5.6687 7.67396 5.81367 7.99724C6.11013 8.65105 6.59795 9.34328 7.24161 9.98477C7.39673 10.1392 7.54895 10.2943 7.71277 10.4385C8.51258 11.1426 9.46565 11.6504 10.4962 11.9216L10.9079 11.9846C11.042 11.9919 11.1761 11.9817 11.3109 11.9752C11.522 11.9641 11.728 11.9069 11.9147 11.8078C12.0095 11.7587 12.1022 11.7055 12.1923 11.6483C12.1923 11.6483 12.223 11.6275 12.2829 11.5831C12.3808 11.5106 12.4409 11.4591 12.5221 11.3743C12.583 11.3115 12.6337 11.2385 12.6743 11.1554C12.7309 11.0372 12.7874 10.8118 12.8106 10.6241C12.828 10.4806 12.8229 10.4023 12.8208 10.3537C12.8179 10.2762 12.7533 10.1957 12.683 10.1616L12.2612 9.97245C12.2612 9.97245 11.6306 9.69773 11.2449 9.52232C11.2046 9.50474 11.1613 9.49467 11.1174 9.4926C11.0678 9.48741 11.0176 9.49294 10.9704 9.50883C10.9231 9.52471 10.8798 9.55057 10.8434 9.58465C10.8398 9.5832 10.7912 9.62452 10.2671 10.2595C10.237 10.2999 10.1956 10.3305 10.1481 10.3472C10.1006 10.364 10.0492 10.3663 10.0004 10.3537C9.95314 10.3411 9.90687 10.3251 9.86193 10.3059C9.77205 10.2682 9.74088 10.2537 9.67927 10.2276C9.26312 10.0463 8.87791 9.801 8.53764 9.50057C8.44631 9.42084 8.3615 9.33386 8.27452 9.24977C7.98937 8.97666 7.74085 8.66771 7.53518 8.33067L7.49241 8.26181C7.46216 8.21527 7.43735 8.16541 7.41848 8.11322C7.39093 8.00666 7.46269 7.92113 7.46269 7.92113C7.46269 7.92113 7.63883 7.72832 7.72074 7.62395C7.80047 7.52247 7.86788 7.42389 7.91137 7.35358C7.9969 7.21586 8.02372 7.07451 7.97878 6.96506C7.77583 6.46927 7.5661 5.97613 7.34962 5.48565C7.30685 5.38852 7.18 5.31893 7.06475 5.30516C7.02561 5.30033 6.98647 5.29646 6.94733 5.29357C6.85 5.28798 6.75241 5.28895 6.65521 5.29646L6.80163 5.29139Z" fill="black"/>
</svg>
