<svg width="19" height="18" viewBox="0 0 19 18" fill="none" xmlns="http://www.w3.org/2000/svg">
<path fill-rule="evenodd" clip-rule="evenodd" d="M11.8238 1.31873H8.88384C7.55158 1.31873 6.4962 1.31873 5.6706 1.42963C4.82108 1.54415 4.1332 1.7848 3.59029 2.32699C3.04811 2.8699 2.80746 3.55777 2.69293 4.40729C2.58203 5.23362 2.58203 6.28827 2.58203 7.62054V12.0102C2.5819 12.6578 2.81301 13.2842 3.23374 13.7766C3.65447 14.2689 4.23716 14.5949 4.87689 14.6958C4.9762 15.2495 5.16828 15.7221 5.55245 16.107C5.98881 16.5434 6.53824 16.7304 7.1906 16.8188C7.81904 16.9029 8.61855 16.9029 9.60941 16.9029H11.8637C12.8545 16.9029 13.6541 16.9029 14.2825 16.8188C14.9349 16.7304 15.4843 16.5434 15.9206 16.107C16.357 15.6707 16.544 15.1212 16.6324 14.4689C16.7165 13.8404 16.7165 13.0409 16.7165 12.0501V8.34611C16.7165 7.35524 16.7165 6.55574 16.6324 5.9273C16.544 5.27493 16.357 4.7255 15.9206 4.28914C15.5358 3.90498 15.0632 3.71289 14.5094 3.61359C14.4085 2.97386 14.0826 2.39116 13.5902 1.97043C13.0978 1.5497 12.4714 1.3186 11.8238 1.31873ZM13.3677 3.50849C13.2575 3.18665 13.0494 2.90734 12.7726 2.70965C12.4957 2.51196 12.164 2.40579 11.8238 2.40599H8.92443C7.54215 2.40599 6.56071 2.40744 5.81484 2.50747C5.08637 2.60533 4.66596 2.78944 4.35935 3.09605C4.05274 3.40266 3.86863 3.82307 3.77078 4.55154C3.67075 5.29741 3.6693 6.27885 3.6693 7.66113V12.0102C3.66909 12.3504 3.77527 12.6821 3.97296 12.959C4.17065 13.2358 4.44996 13.4439 4.77179 13.5541C4.75657 13.112 4.75657 12.6118 4.75657 12.0501V8.34611C4.75657 7.35524 4.75657 6.55574 4.84138 5.9273C4.92836 5.27493 5.11682 4.7255 5.55245 4.28914C5.98881 3.85279 6.53824 3.66578 7.1906 3.57807C7.81904 3.49326 8.61855 3.49326 9.60941 3.49326H11.8637C12.4254 3.49326 12.9256 3.49326 13.3677 3.50849ZM6.32079 5.05893C6.52157 4.85815 6.80281 4.72768 7.33557 4.65592C7.8821 4.58271 8.6084 4.58126 9.64855 4.58126H11.8231C12.8632 4.58126 13.5888 4.58271 14.1368 4.65592C14.6688 4.72768 14.9501 4.85887 15.1509 5.05893C15.3516 5.25971 15.4821 5.54095 15.5539 6.07371C15.6271 6.62025 15.6285 7.34654 15.6285 8.3867V12.0109C15.6285 13.0511 15.6271 13.7767 15.5539 14.3246C15.4821 14.8567 15.3509 15.1379 15.1509 15.3387C14.9501 15.5395 14.6688 15.67 14.1361 15.7417C13.5888 15.8149 12.8632 15.8164 11.8231 15.8164H9.64855C8.6084 15.8164 7.88211 15.8149 7.33485 15.7417C6.80281 15.67 6.52157 15.5388 6.32079 15.3387C6.12 15.1379 5.98953 14.8567 5.91777 14.3239C5.84456 13.7767 5.84311 13.0511 5.84311 12.0109V8.3867C5.84311 7.34654 5.84456 6.62025 5.91777 6.07299C5.98953 5.54095 6.12073 5.25971 6.32079 5.05893Z" fill="white"/>
</svg>
