<svg width="20" height="20" viewBox="0 0 20 20" fill="none" xmlns="http://www.w3.org/2000/svg">
<path d="M6.45826 2.08337C6.45826 1.91761 6.39241 1.75864 6.2752 1.64143C6.15799 1.52422 5.99902 1.45837 5.83326 1.45837C5.6675 1.45837 5.50852 1.52422 5.39131 1.64143C5.2741 1.75864 5.20826 1.91761 5.20826 2.08337V3.40004C4.00826 3.49587 3.22159 3.73087 2.64326 4.31004C2.06409 4.88837 1.82909 5.67587 1.73242 6.87504H18.2674C18.1708 5.67504 17.9358 4.88837 17.3566 4.31004C16.7783 3.73087 15.9908 3.49587 14.7916 3.39921V2.08337C14.7916 1.91761 14.7257 1.75864 14.6085 1.64143C14.4913 1.52422 14.3323 1.45837 14.1666 1.45837C14.0008 1.45837 13.8419 1.52422 13.7246 1.64143C13.6074 1.75864 13.5416 1.91761 13.5416 2.08337V3.34421C12.9874 3.33337 12.3658 3.33337 11.6666 3.33337H8.33326C7.63409 3.33337 7.01242 3.33337 6.45826 3.34421V2.08337Z" fill="#6D6D6D"/>
<path fill-rule="evenodd" clip-rule="evenodd" d="M1.66602 10C1.66602 9.30083 1.66602 8.67917 1.67685 8.125H18.3218C18.3327 8.67917 18.3327 9.30083 18.3327 10V11.6667C18.3327 14.8092 18.3327 16.3808 17.356 17.3567C16.3793 18.3325 14.8085 18.3333 11.666 18.3333H8.33268C5.19018 18.3333 3.61852 18.3333 2.64268 17.3567C1.66685 16.38 1.66602 14.8092 1.66602 11.6667V10ZM14.166 11.6667C14.387 11.6667 14.599 11.5789 14.7553 11.4226C14.9116 11.2663 14.9993 11.0543 14.9993 10.8333C14.9993 10.6123 14.9116 10.4004 14.7553 10.2441C14.599 10.0878 14.387 10 14.166 10C13.945 10 13.733 10.0878 13.5768 10.2441C13.4205 10.4004 13.3327 10.6123 13.3327 10.8333C13.3327 11.0543 13.4205 11.2663 13.5768 11.4226C13.733 11.5789 13.945 11.6667 14.166 11.6667ZM14.166 15C14.387 15 14.599 14.9122 14.7553 14.7559C14.9116 14.5996 14.9993 14.3877 14.9993 14.1667C14.9993 13.9457 14.9116 13.7337 14.7553 13.5774C14.599 13.4211 14.387 13.3333 14.166 13.3333C13.945 13.3333 13.733 13.4211 13.5768 13.5774C13.4205 13.7337 13.3327 13.9457 13.3327 14.1667C13.3327 14.3877 13.4205 14.5996 13.5768 14.7559C13.733 14.9122 13.945 15 14.166 15ZM10.8327 10.8333C10.8327 11.0543 10.7449 11.2663 10.5886 11.4226C10.4323 11.5789 10.2204 11.6667 9.99935 11.6667C9.77833 11.6667 9.56637 11.5789 9.41009 11.4226C9.25381 11.2663 9.16602 11.0543 9.16602 10.8333C9.16602 10.6123 9.25381 10.4004 9.41009 10.2441C9.56637 10.0878 9.77833 10 9.99935 10C10.2204 10 10.4323 10.0878 10.5886 10.2441C10.7449 10.4004 10.8327 10.6123 10.8327 10.8333ZM10.8327 14.1667C10.8327 14.3877 10.7449 14.5996 10.5886 14.7559C10.4323 14.9122 10.2204 15 9.99935 15C9.77833 15 9.56637 14.9122 9.41009 14.7559C9.25381 14.5996 9.16602 14.3877 9.16602 14.1667C9.16602 13.9457 9.25381 13.7337 9.41009 13.5774C9.56637 13.4211 9.77833 13.3333 9.99935 13.3333C10.2204 13.3333 10.4323 13.4211 10.5886 13.5774C10.7449 13.7337 10.8327 13.9457 10.8327 14.1667ZM5.83268 11.6667C6.0537 11.6667 6.26566 11.5789 6.42194 11.4226C6.57822 11.2663 6.66602 11.0543 6.66602 10.8333C6.66602 10.6123 6.57822 10.4004 6.42194 10.2441C6.26566 10.0878 6.0537 10 5.83268 10C5.61167 10 5.39971 10.0878 5.24343 10.2441C5.08715 10.4004 4.99935 10.6123 4.99935 10.8333C4.99935 11.0543 5.08715 11.2663 5.24343 11.4226C5.39971 11.5789 5.61167 11.6667 5.83268 11.6667ZM5.83268 15C6.0537 15 6.26566 14.9122 6.42194 14.7559C6.57822 14.5996 6.66602 14.3877 6.66602 14.1667C6.66602 13.9457 6.57822 13.7337 6.42194 13.5774C6.26566 13.4211 6.0537 13.3333 5.83268 13.3333C5.61167 13.3333 5.39971 13.4211 5.24343 13.5774C5.08715 13.7337 4.99935 13.9457 4.99935 14.1667C4.99935 14.3877 5.08715 14.5996 5.24343 14.7559C5.39971 14.9122 5.61167 15 5.83268 15Z" fill="#6D6D6D"/>
</svg>
